<?xml version="1.0" standalone="no"?>
<!DOCTYPE svg PUBLIC "-//W3C//DTD SVG 20010904//EN"
 "http://www.w3.org/TR/2001/REC-SVG-20010904/DTD/svg10.dtd">
<svg version="1.0" xmlns="http://www.w3.org/2000/svg"
 width="677.000000pt" height="677.000000pt" viewBox="0 0 677.000000 677.000000"
 preserveAspectRatio="xMidYMid meet">
<metadata>
Created by potrace 1.11, written by Peter Selinger 2001-2013
</metadata>
<g transform="translate(0.000000,677.000000) scale(0.100000,-0.100000)"
fill="#000000" stroke="none">
<path d="M3228 6435 c-2 -1 -37 -6 -78 -10 -41 -4 -86 -9 -100 -11 -14 -2 -42
-6 -63 -9 -72 -11 -253 -56 -347 -87 -52 -18 -97 -33 -100 -33 -5 -2 -10 -4
-120 -50 -80 -33 -249 -122 -271 -141 -8 -8 -19 -14 -23 -14 -4 0 -44 -25 -88
-55 -44 -30 -84 -55 -89 -55 -6 0 -7 -4 -4 -10 3 -5 2 -10 -3 -10 -20 0 -160
-119 -266 -226 -46 -47 -53 -51 -76 -41 -27 11 -37 13 -92 20 -20 3 -40 2 -43
-2 -4 -3 -11 -6 -17 -6 -13 0 -32 -36 -44 -80 -5 -22 -25 -63 -59 -120 -20
-33 -39 -68 -42 -77 -3 -10 -8 -18 -12 -18 -4 0 -13 -16 -21 -35 -8 -19 -17
-35 -22 -35 -4 0 -8 -7 -8 -15 0 -9 -5 -21 -11 -28 -6 -7 -48 -66 -95 -132
-82 -117 -123 -172 -155 -205 -26 -27 -60 -107 -57 -132 4 -25 36 -68 52 -68
5 0 19 -11 32 -25 13 -14 26 -25 29 -25 9 0 35 -27 30 -31 -4 -5 -51 -225 -60
-284 -26 -172 -26 -522 0 -680 13 -77 15 -92 20 -115 3 -14 7 -36 10 -50 2
-14 12 -52 21 -85 9 -33 17 -64 18 -70 1 -5 5 -16 9 -22 5 -7 6 -13 3 -13 -5
0 34 -110 80 -225 36 -90 134 -281 179 -348 19 -28 35 -56 35 -62 0 -6 9 -17
20 -25 11 -8 20 -18 20 -23 0 -5 10 -22 23 -37 12 -16 29 -37 37 -48 60 -78
99 -121 205 -227 111 -111 203 -195 212 -195 3 0 86 -62 120 -90 7 -6 14 -10
16 -10 2 0 37 -22 78 -48 82 -54 312 -172 335 -172 7 0 14 -4 14 -10 0 -5 3
-9 8 -8 6 2 85 -25 142 -49 8 -3 20 -7 26 -8 7 -2 43 -12 80 -23 97 -28 151
-42 182 -47 15 -3 44 -9 64 -14 20 -5 39 -6 42 -4 2 3 10 2 17 -3 7 -4 24 -8
38 -9 14 -1 67 -5 116 -10 142 -13 430 -9 520 9 11 2 43 7 70 11 58 8 225 46
305 69 30 9 63 18 73 21 9 2 23 7 30 12 6 4 19 9 28 10 8 1 29 9 45 18 16 8
35 15 42 15 7 0 20 4 30 9 49 27 125 61 137 61 7 0 15 4 17 8 2 4 38 27 80 49
72 39 217 129 228 142 3 3 23 18 45 33 40 27 53 38 149 121 98 84 198 189 315
332 110 134 267 410 327 574 14 36 28 75 33 86 36 82 101 337 117 455 27 208
26 588 -2 713 -3 12 -7 36 -10 52 -9 54 -19 100 -31 150 -4 17 -8 35 -9 40 0
6 -3 17 -6 25 -3 8 -18 53 -33 100 -15 47 -33 99 -41 117 -8 17 -14 33 -14 36
0 2 -10 26 -22 53 -12 27 -22 51 -23 55 -1 12 -70 145 -80 151 -6 5 -6 8 0 8
7 0 7 3 0 8 -5 4 -19 23 -29 42 -10 19 -48 78 -83 131 -34 54 -63 100 -63 103
0 4 11 4 25 2 13 -3 27 -1 30 4 3 4 14 6 25 3 11 -3 27 0 35 7 11 9 15 9 15 1
0 -7 3 -10 8 -8 4 3 32 8 62 11 30 4 91 12 135 17 44 6 94 12 110 14 17 2 30
4 30 5 0 1 11 3 25 6 47 8 52 12 40 34 -13 24 -120 133 -120 123 0 -5 -4 -2
-9 6 -9 15 -72 16 -246 5 -55 -4 -110 -7 -122 -7 -13 -1 -23 -3 -23 -6 0 -4
-21 -7 -48 -7 -26 -1 -69 -3 -97 -5 -49 -3 -51 -2 -105 51 -70 69 -180 169
-180 164 0 -4 -20 12 -63 50 -87 76 -418 265 -545 312 -26 9 -63 24 -82 31
-19 8 -36 14 -37 14 -2 -1 -27 8 -55 18 -52 19 -128 42 -158 47 -8 1 -26 5
-40 8 -104 24 -230 46 -300 52 -63 6 -397 13 -402 9z"/>
<path d="M1324 2462 c-29 -26 -64 -56 -79 -67 -15 -11 -46 -37 -68 -57 -42
-40 -42 -41 2 -88 21 -21 32 -19 62 14 39 44 53 25 23 -31 l-24 -47 26 -38
c15 -21 31 -35 36 -32 4 3 16 22 26 42 13 28 23 37 44 38 14 1 38 11 53 22 54
42 102 89 108 105 7 18 -126 187 -147 187 -6 0 -34 -22 -62 -48z m88 -96 c16
-12 16 -14 -6 -35 -25 -24 -47 -24 -57 -1 -7 16 17 50 35 50 6 0 19 -7 28 -14z"/>
<path d="M5308 2404 c-29 -31 -66 -70 -81 -86 l-29 -30 39 -37 c89 -83 195
-176 206 -180 6 -2 23 11 39 29 l28 34 -35 34 c-19 19 -32 39 -29 43 2 5 27 0
54 -11 l48 -19 31 31 c39 40 39 47 1 55 -17 3 -33 10 -36 14 -3 5 -10 7 -15 4
-5 -4 -9 6 -9 20 0 19 -15 41 -52 76 -29 28 -65 56 -80 64 -26 14 -28 13 -80
-41z m102 -106 c0 -10 -25 -38 -34 -38 -10 0 -46 34 -46 44 0 5 8 14 17 21 14
10 21 10 40 -2 13 -9 23 -20 23 -25z"/>
<path d="M1492 2221 c-37 -38 -85 -89 -108 -113 l-41 -45 29 -31 c15 -18 31
-32 35 -32 4 0 18 11 32 24 25 24 27 24 48 7 l22 -18 -24 -23 c-32 -30 -31
-39 7 -72 l32 -27 103 107 c67 69 103 115 103 129 0 24 -115 142 -151 155 -16
6 -33 -6 -87 -61z m107 -110 c-25 -34 -40 -38 -59 -16 -12 15 -9 25 23 61 19
22 20 22 39 4 20 -18 20 -18 -3 -49z"/>
<path d="M5161 2241 c-12 -12 -21 -19 -21 -17 0 2 -23 -18 -52 -45 -28 -27
-55 -49 -60 -49 -20 0 -4 -28 54 -94 34 -39 69 -78 77 -87 9 -9 28 -30 44 -48
15 -17 30 -31 35 -31 4 0 43 34 87 75 73 68 79 76 63 88 -10 8 -18 19 -18 25
0 15 -43 5 -56 -13 -6 -8 -16 -15 -23 -15 -6 0 -11 -7 -11 -16 0 -8 -4 -12
-10 -9 -5 3 -10 0 -10 -7 0 -8 -6 -7 -17 5 -16 16 -15 19 24 56 l41 39 -27 26
c-34 33 -39 32 -75 -4 -16 -17 -35 -30 -43 -30 -26 0 -12 36 27 69 22 18 40
36 40 39 0 4 -11 20 -24 35 l-25 28 -20 -20z"/>
<path d="M1740 2053 c-19 -27 -39 -53 -45 -59 -5 -6 -17 -22 -25 -34 -8 -13
-23 -32 -32 -42 -10 -10 -16 -18 -13 -18 3 0 -3 -10 -15 -22 -26 -29 -25 -38
11 -67 l31 -24 22 24 c12 13 30 38 41 56 20 34 43 36 25 2 -6 -10 -9 -19 -7
-19 3 0 1 -19 -4 -42 -4 -24 -5 -52 -3 -64 6 -24 62 -60 73 -48 4 5 30 38 57
74 27 36 52 70 57 75 4 6 23 32 42 59 l34 50 -31 23 c-18 13 -35 23 -40 23 -4
0 -20 -18 -34 -40 -15 -22 -30 -40 -35 -40 -4 0 -10 -8 -12 -17 -4 -17 -1 31
8 117 2 27 -3 40 -21 57 -14 13 -31 23 -38 23 -7 0 -28 -21 -46 -47z"/>
<path d="M4955 2051 c-46 -14 -165 -105 -165 -127 0 -8 4 -14 8 -14 4 0 16
-15 27 -32 10 -18 24 -38 29 -45 17 -19 28 -34 66 -88 46 -67 58 -78 72 -69
25 15 93 69 96 77 2 4 10 7 17 7 17 0 45 44 45 70 0 22 -67 130 -81 130 -4 0
-11 10 -15 22 -13 44 -65 79 -99 69z m52 -164 l42 -62 -21 -16 c-21 -16 -23
-15 -59 35 -21 28 -43 56 -48 63 -12 13 11 43 32 43 7 0 31 -28 54 -63z"/>
<path d="M2007 1910 c-9 -11 -17 -23 -17 -26 0 -4 -20 -40 -45 -81 -25 -40
-45 -78 -45 -83 0 -6 -3 -10 -7 -10 -5 0 -14 -12 -21 -27 -14 -32 -9 -39 51
-72 20 -12 53 -30 72 -41 48 -27 70 -25 107 10 17 17 27 30 23 30 -4 0 -1 8 7
18 31 34 86 152 81 171 -7 26 -40 61 -58 61 -8 0 -15 5 -15 10 0 6 -6 10 -14
10 -8 0 -21 6 -28 13 -17 15 -55 37 -66 37 -4 0 -15 -9 -25 -20z m92 -114 c9
-11 7 -22 -11 -52 -12 -22 -26 -42 -31 -45 -5 -3 -8 -9 -8 -13 2 -18 -12 -34
-27 -31 -9 2 -20 4 -24 4 -15 2 -8 32 17 71 14 22 25 42 25 45 0 11 25 34 36
35 6 0 17 -6 23 -14z"/>
<path d="M4630 1855 c-7 -8 -19 -15 -27 -15 -17 0 -17 0 80 -167 39 -68 76
-123 83 -123 6 0 17 7 24 15 7 8 16 12 21 9 5 -3 9 -2 9 3 0 4 23 19 50 32 54
27 61 45 32 81 l-19 23 -41 -23 c-23 -13 -43 -22 -45 -19 -17 23 -107 183
-107 190 0 15 -46 10 -60 -6z"/>
<path d="M4488 1784 c-16 -8 -28 -19 -28 -24 0 -5 27 -65 60 -133 33 -69 60
-129 60 -135 0 -19 30 -21 65 -5 40 19 42 28 18 63 -10 14 -17 27 -17 30 1 3
-22 53 -50 112 -32 67 -57 108 -66 107 -8 0 -27 -7 -42 -15z"/>
<path d="M2272 1773 c-10 -4 -52 -81 -52 -97 0 -2 -16 -39 -36 -82 -21 -46
-33 -86 -30 -98 3 -14 26 -30 68 -49 35 -15 65 -27 68 -26 3 0 18 -6 34 -15
28 -14 31 -14 53 10 13 14 23 29 23 34 0 9 19 53 72 169 13 30 17 50 11 63 -5
11 -44 35 -88 54 -87 39 -104 44 -123 37z m85 -109 l22 -6 -20 -50 c-11 -27
-26 -63 -34 -79 -14 -26 -18 -27 -41 -17 -13 6 -23 16 -20 22 26 66 60 136 65
136 3 0 16 -3 28 -6z"/>
<path d="M4398 1734 c-4 -3 -12 -7 -20 -9 -48 -11 -57 -18 -49 -34 5 -9 26
-60 46 -115 30 -79 34 -100 23 -107 -27 -17 -36 -7 -68 79 -55 144 -53 141
-95 128 -40 -13 -52 -35 -34 -68 7 -13 13 -27 14 -33 0 -5 9 -28 19 -50 10
-22 19 -47 21 -55 6 -28 36 -93 48 -104 13 -13 22 -13 52 -2 166 63 160 60
161 91 0 27 -29 114 -57 170 -6 12 -12 27 -13 35 -2 8 -9 30 -16 48 -12 31
-20 38 -32 26z"/>
<path d="M2486 1558 c-57 -188 -59 -202 -26 -206 14 -2 30 -8 37 -13 14 -12
15 -9 38 59 17 54 26 59 32 19 2 -12 5 -28 8 -35 8 -21 49 -10 60 16 12 26 41
31 30 5 -4 -10 -12 -36 -17 -57 -10 -44 1 -57 52 -63 23 -3 27 2 48 70 12 41
22 81 22 90 0 9 4 18 9 21 7 5 20 53 22 83 1 5 5 16 10 26 8 14 4 19 -18 28
-53 21 -69 20 -91 -6 -12 -14 -22 -27 -22 -30 0 -2 -11 -15 -25 -29 -25 -25
-25 -25 -26 -3 -4 96 -14 124 -46 131 -16 4 -35 9 -44 12 -13 3 -23 -21 -53
-118z"/>
<path d="M4049 1613 c-16 -7 -29 -10 -29 -8 0 2 -15 -1 -32 -6 -18 -6 -41 -12
-52 -14 -10 -3 -21 -7 -23 -9 -4 -4 53 -240 72 -303 5 -17 18 -16 85 3 30 8
67 17 82 19 57 8 82 36 73 80 -2 11 -4 21 -5 23 -2 1 -3 5 -4 10 -8 32 -20 52
-32 52 -16 0 -16 6 -5 35 5 11 3 38 -4 63 -7 23 -10 42 -7 42 4 0 -3 7 -15 15
-24 17 -61 16 -104 -2z m25 -79 c26 -10 19 -43 -9 -50 -30 -7 -30 -7 -40 25
-5 15 -4 21 3 17 6 -3 13 -2 17 4 7 12 8 12 29 4z m44 -143 c2 -24 -2 -29 -24
-34 -21 -4 -28 0 -32 17 -3 11 -5 23 -4 26 1 4 31 15 52 19 3 1 7 -12 8 -28z"/>
<path d="M2956 1552 c-2 -9 -7 -42 -11 -73 -3 -31 -8 -67 -10 -80 -3 -12 -7
-45 -10 -73 -3 -28 -8 -52 -10 -55 -11 -10 17 -39 35 -36 11 2 20 1 20 -3 0
-4 12 -7 27 -6 14 0 44 -2 65 -6 42 -8 52 -1 57 43 3 33 -6 38 -87 46 -9 1
-11 11 -7 34 3 17 7 46 10 62 3 17 8 58 11 93 6 60 5 62 -17 63 -13 0 -34 2
-46 5 -14 2 -23 -2 -27 -14z"/>
<path d="M3696 1553 c-1 -1 -31 -5 -66 -9 -71 -7 -82 -16 -73 -54 9 -38 12
-40 44 -35 16 3 29 2 30 -2 0 -5 2 -17 5 -28 2 -11 6 -49 9 -85 10 -124 14
-132 63 -124 47 8 52 11 47 32 -2 10 -6 45 -9 78 -3 32 -9 78 -12 102 -6 38
-4 42 15 43 11 1 27 2 34 3 12 1 18 48 9 74 -3 8 -20 11 -49 10 -24 -2 -45 -4
-47 -5z"/>
<path d="M3189 1538 c-3 -13 -12 -190 -13 -253 l-1 -79 44 -1 c37 0 44 3 47
20 2 18 10 129 17 255 2 25 -2 48 -8 52 -9 7 -84 11 -86 6z"/>
<path d="M3444 1531 c-2 -2 -22 -4 -44 -3 -61 3 -76 -16 -73 -91 1 -34 3 -64
4 -67 1 -3 1 -12 0 -22 -3 -22 8 -27 68 -29 42 -2 51 -5 51 -21 0 -15 -8 -18
-60 -18 l-60 0 0 -39 c0 -22 5 -41 13 -43 6 -3 49 -4 95 -3 104 3 115 11 115
94 0 33 -2 63 -6 67 -3 3 -3 12 -1 19 5 11 -12 24 -27 21 -3 0 -13 5 -22 12
-10 8 -17 9 -21 3 -9 -14 -49 2 -51 20 -2 11 9 14 49 14 64 -1 77 8 70 48 -3
17 -7 33 -10 36 -5 6 -84 8 -90 2z"/>
</g>
</svg>
